<?xml version="1.0" encoding="UTF-8" standalone="no" ?>
<!DOCTYPE svg PUBLIC "-//W3C//DTD SVG 1.1//EN" "http://www.w3.org/Graphics/SVG/1.1/DTD/svg11.dtd">
<svg xmlns="http://www.w3.org/2000/svg" xmlns:xlink="http://www.w3.org/1999/xlink" version="1.1" width="1040" height="345" viewBox="-243.1884057971015 0 1326.376811594203 440" xml:space="preserve">
<desc>Created with Fabric.js 5.3.0</desc>
<defs>
</defs>
<g transform="matrix(1 0 0 1 420 220)" id="mm1xTVZXiMtudh3x1o-nd"  >
<g style="" vector-effect="non-scaling-stroke"   >
		<g transform="matrix(0.5228551404 0 0 0.5228551404 0 0.1859113466)" id="TI6KvpbamOpJiJq9z4XL2"  >
<path style="stroke: rgb(53,73,94); stroke-width: 0; stroke-dasharray: none; stroke-linecap: butt; stroke-dashoffset: 0; stroke-linejoin: miter; stroke-miterlimit: 4; fill: rgb(65,184,131); fill-rule: nonzero; opacity: 1;" vector-effect="non-scaling-stroke"  transform=" translate(0.0000014049, -6.32e-7)" d="M -295.61552 336.45962 L -320.34552 -322.4803800000001 C -321.16552 -344.2403800000001 -304.47552 -362.69038000000006 -282.74552 -364.0403800000001 L 277.73448 -399.0703800000001 C 299.85448 -400.4503800000001 318.91448 -383.6403800000001 320.29448 -361.5203800000001 C 320.34448000000003 -360.6903800000001 320.37448 -359.8503800000001 320.37448 -359.0203800000001 L 320.37448 359.00961999999987 C 320.37448 381.1796199999999 302.40448000000004 399.14961999999986 280.23448 399.14961999999986 C 279.63448 399.14961999999986 279.03448000000003 399.13961999999987 278.43448 399.10961999999984 L -257.30552 375.04961999999983 C -278.17552 374.10961999999984 -294.82552 357.32961999999986 -295.61552 336.45961999999986 z" stroke-linecap="round" />
</g>
		<g transform="matrix(1.2977832066 0 0 1.2977832066 -0.4039015499 -0.4511918834)" id="M9-wkZZu7RA2FOW4YGS33"  >
<path style="stroke: none; stroke-width: 1; stroke-dasharray: none; stroke-linecap: butt; stroke-dashoffset: 0; stroke-linejoin: miter; stroke-miterlimit: 4; fill: none; fill-rule: nonzero; opacity: 1;" vector-effect="non-scaling-stroke"  transform=" translate(-127.7485835, -159.1615215002)" d="M 9.87245893 293.324145 L 0.0114611411 30.5732167 C -0.314208957 21.8955842 6.33948896 14.5413918 15.0063196 13.9997149 L 238.494389 0.0317105427 C 247.316188 -0.519651867 254.914637 6.18486163 255.466 15.0066607 C 255.486773 15.339032 255.497167 15.6719708 255.497167 16.0049907 L 255.497167 302.318596 C 255.497167 311.157608 248.331732 318.323043 239.492719 318.323043 C 239.253266 318.323043 239.013844 318.317669 238.774632 318.306926 L 25.1475605 308.712253 C 16.8276309 308.338578 10.1847994 301.646603 9.87245893 293.324145 L 9.87245893 293.324145 Z" stroke-linecap="round" />
</g>
		<g transform="matrix(1.2977832066 0 0 1.2977832066 20.6900456545 -40.9755412232)" id="Ju7vrwO9o0fmBXU5DawH-"  >
<path style="stroke: none; stroke-width: 1; stroke-dasharray: none; stroke-linecap: butt; stroke-dashoffset: 0; stroke-linejoin: miter; stroke-miterlimit: 4; fill: rgb(255,255,255); fill-rule: nonzero; opacity: 1;" vector-effect="non-scaling-stroke"  transform=" translate(0, 0)" d="M 44.66294 -89.86822 L 46.189479999999996 -126.58371 L 76.88110999999999 -128.99519999999998 L 78.20333 -91.13178999999998 C 78.24934999999999 -89.81405999999998 77.21840999999999 -88.70851999999998 75.90068 -88.66249999999998 C 75.33644 -88.64279999999998 74.78348 -88.82368999999998 74.33998 -89.17305999999998 L 62.5043 -98.49678999999998 L 48.49114 -87.86695999999998 C 47.44064 -87.07008999999998 45.94306 -87.27569999999997 45.146190000000004 -88.32619999999997 C 44.810750000000006 -88.76840999999997 44.639860000000006 -89.31366999999997 44.66292000000001 -89.86822999999997 z M 5.41129 -9.01489 C 5.41129 -2.788219999999999 47.35326 -5.772499999999999 52.98361 -10.14631 C 52.98361 -52.54842 30.23163 -74.83006 -11.431079999999994 -74.83006 C -53.09378999999999 -74.83006 -76.43673 -52.201750000000004 -76.43673 -18.259260000000005 C -76.43673 40.85724 3.3429300000000097 41.988659999999996 3.3429300000000097 74.23401999999999 C 3.3429300000000097 83.28535 -1.0892699999999902 88.65957999999999 -10.84011999999999 88.65957999999999 C -23.54576999999999 88.65957999999999 -28.568929999999988 82.17071999999999 -27.977969999999992 60.10809999999999 C -27.977969999999992 55.32189999999999 -76.43672999999998 53.82975999999999 -77.91413 60.10809999999999 C -81.67619 113.57366999999999 -48.36611 128.9952 -10.249160000000003 128.9952 C 26.685869999999994 128.9952 55.64292999999999 109.30793000000001 55.64292999999999 73.66832000000001 C 55.64292999999999 10.309010000000008 -25.318650000000005 12.006130000000006 -25.318650000000005 -19.390659999999997 C -25.318650000000005 -32.11909 -15.863280000000005 -33.81622 -10.249160000000005 -33.81622 C -4.339560000000005 -33.81622 6.297729999999996 -32.77462 5.411289999999996 -9.014880000000002 z" stroke-linecap="round" />
</g>
		<g transform="matrix(0.5180137366 0 0 0.5180137366 6 -5.4642816973)" id="PRD2Lf6J4gOE_4v4rclju"  >
<path style="stroke: rgb(255,71,133); stroke-width: 0; stroke-dasharray: none; stroke-linecap: butt; stroke-dashoffset: 0; stroke-linejoin: miter; stroke-miterlimit: 4; fill: rgb(65,184,131); fill-rule: nonzero; opacity: 0.85;" vector-effect="non-scaling-stroke"  transform=" translate(-332.8458166272, -391.485)" d="M 374.71 300.96 C 374.71 316.58 479.89 309.09 494.01 298.12 C 494.01 191.78 436.95 135.9 332.47 135.9 C 227.99000000000007 135.9 169.45000000000002 192.65 169.45000000000002 277.77 C 169.45000000000002 426.02 369.52 428.86 369.52 509.73 C 369.52 532.4300000000001 358.4 545.91 333.95 545.91 C 302.09 545.91 289.49 529.64 290.96999999999997 474.30999999999995 C 290.96999999999997 462.30999999999995 169.43999999999997 458.55999999999995 165.73999999999995 474.30999999999995 C 156.30999999999995 608.39 239.83999999999995 647.0699999999999 335.42999999999995 647.0699999999999 C 431.02 647.0699999999999 500.67999999999995 597.6999999999999 500.67999999999995 508.31999999999994 C 500.67999999999995 349.42999999999995 297.64 353.67999999999995 297.64 274.93999999999994 C 297.64 243.01999999999992 321.34999999999997 238.75999999999993 335.43 238.75999999999993 C 350.25 238.75999999999993 376.93 241.36999999999995 374.7 300.9599999999999 Z" stroke-linecap="round" />
</g>
		<g transform="matrix(0.1097380743 0 0 0.1097380743 3.6218025681 -29.9571588406)" id="0CszmvEnODICsKHSeKolM"  >
<path style="stroke: none; stroke-width: 1; stroke-dasharray: none; stroke-linecap: butt; stroke-dashoffset: 0; stroke-linejoin: miter; stroke-miterlimit: 4; fill: rgb(53,73,94); fill-rule: nonzero; opacity: 1;" vector-effect="non-scaling-stroke"  transform=" translate(-1246.9, -650)" d="M 493.8 0 L 1250 1300 L 2000 0 L 1537.5 0 L 1250 500 L 956.3 0 L 493.8 0 z" stroke-linecap="round" />
</g>
		<g transform="matrix(0.1097380743 0 0 0.1097380743 3.6218025681 17.0271976685)" id="yFrf4gw00rQX8Sd8fKwFo"  >
<path style="stroke: rgb(255,255,255); stroke-width: 12; stroke-dasharray: none; stroke-linecap: butt; stroke-dashoffset: 0; stroke-linejoin: miter; stroke-miterlimit: 4; fill: rgb(65,184,131); fill-rule: nonzero; opacity: 1;" vector-effect="non-scaling-stroke"  transform=" translate(0, 0)" d="M -1250 -1078.15 L 0 1078.15 L 1250 -1078.15 L 750 -1078.15 L 0 215.64999999999986 L -756.2 -1078.15 z" stroke-linecap="round" />
</g>
</g>
</g>
</svg>